# xmcd
# 
# Track frame offsets:
#     150
#     6018
#     27675
#     47622
#     64282
#     69321
#     85497
#     95593
#     111642
#     132938
# 
# Disc length: 1859
# 
# Revision: 3
# Processed by: cddbd v1.5.2PL0 Copyright (c) Steve Scherf et al.
# Submitted via: BonkEnc v1.0.8
# 
DISCID=8e07410a
DTITLE=Marvin Gaye - Rockin' After Midnight
DYEAR=1983
DGENRE=Soul
TTITLE0=After The Dance (Introduction)
TTITLE1=Rockin' After Midnight
TTITLE2=Joy
TTITLE3=Thrird World Girl
TTITLE4=If this World Were Mine
TTITLE5=Come Get To This
TTITLE6=God Is My Friend
TTITLE7=Heaven Must Have Sent You
TTITLE8=After The Dance
TTITLE9=Ain't No Mountain High Enough
EXTD=
EXTT0=
EXTT1=
EXTT2=
EXTT3=
EXTT4=
EXTT5=
EXTT6=
EXTT7=
EXTT8=
EXTT9=
PLAYORDER=
